<?xml version="1.0" encoding="UTF-8"?>
<svg version="1.1" xmlns="http://www.w3.org/2000/svg" width="512" height="512">
<path d="M0 0 C4.608436 1.38672353 8.18957014 1.93679828 13.04394531 1.76342773 C17.91559617 2.14147666 22.42392758 4.38421436 26.88964844 6.2434082 C28.53090698 6.91521118 28.53090698 6.91521118 30.20532227 7.60058594 C50.22393635 15.96257165 68.64768761 26.5014212 85.65527344 39.9621582 C88.01712936 41.91889581 88.01712936 41.91889581 90.20214844 42.9309082 C90.20214844 43.5909082 90.20214844 44.2509082 90.20214844 44.9309082 C91.00458984 45.25768555 91.00458984 45.25768555 91.82324219 45.59106445 C95.04881423 47.40776595 97.58949869 49.84385948 100.26464844 52.3684082 C100.83683105 52.90481934 101.40901367 53.44123047 101.99853516 53.99389648 C103.73917642 55.63325355 105.47123227 57.28129341 107.20214844 58.9309082 C107.69730957 59.3973877 108.1924707 59.86386719 108.70263672 60.34448242 C125.44082057 76.16661742 138.46775363 95.65538156 149.20214844 115.9309082 C149.54874512 116.58027344 149.8953418 117.22963867 150.25244141 117.89868164 C163.68524173 143.2500164 171.48871647 170.51849344 175.20214844 198.9309082 C175.28803223 199.58735321 175.37391602 200.24379822 175.46240234 200.9201355 C176.14347486 206.50183293 176.37593334 212.00608203 176.40527344 217.6262207 C176.41233307 218.52804077 176.4193927 219.42986084 176.42666626 220.35900879 C176.65388814 257.91721187 176.65388814 257.91721187 173.20214844 274.9309082 C172.9041333 276.45409668 172.9041333 276.45409668 172.60009766 278.00805664 C164.12467974 320.37879759 145.69563071 360.08007089 116.11621094 391.86450195 C114.38467591 393.73385303 112.75705898 395.65070287 111.13964844 397.6184082 C108.48440758 400.73795347 105.55217736 403.3652002 102.42871094 406.0090332 C100.89072179 407.33656068 99.38693451 408.70438763 97.91308594 410.1027832 C83.96170613 423.31987986 68.09048674 433.85893343 51.20214844 442.9309082 C50.49960937 443.30973145 49.79707031 443.68855469 49.07324219 444.07885742 C29.26263687 454.64670641 7.41905889 462.0002163 -14.61035156 466.2434082 C-15.37178467 466.39052246 -16.13321777 466.53763672 -16.91772461 466.68920898 C-32.40577095 469.45579827 -47.7823383 470.30833565 -63.48535156 470.2434082 C-64.40538971 470.24158539 -65.32542786 470.23976257 -66.27334595 470.23788452 C-80.31566007 470.19114532 -93.97987236 469.6138839 -107.79785156 466.9309082 C-108.72968262 466.75930176 -109.66151367 466.58769531 -110.62158203 466.41088867 C-143.55512796 460.25338861 -177.24039723 447.7533641 -203.79785156 426.9309082 C-205.56632688 425.67757435 -207.33725537 424.42769631 -209.11035156 423.1809082 C-225.72272533 411.03928659 -241.47163321 396.43178161 -253.79785156 379.9309082 C-254.46131592 379.04943115 -254.46131592 379.04943115 -255.13818359 378.15014648 C-295.15935489 324.5766894 -310.8228704 258.21550086 -301.28955078 192.1315918 C-296.47413298 160.78594763 -286.04509885 131.15042221 -269.79785156 103.9309082 C-269.23582031 102.98086914 -268.67378906 102.03083008 -268.09472656 101.05200195 C-263.26172182 93.18077336 -257.62565244 85.89123269 -252.01538086 78.56567383 C-250.89200852 77.0573319 -249.8410804 75.49575145 -248.79785156 73.9309082 C-248.13785156 73.9309082 -247.47785156 73.9309082 -246.79785156 73.9309082 C-246.40919922 73.04918945 -246.40919922 73.04918945 -246.01269531 72.1496582 C-244.71325363 69.77640137 -243.31947128 68.2846989 -241.36035156 66.4309082 C-239.35862752 64.49978439 -237.65033518 62.7325241 -235.98535156 60.4934082 C-235.59347656 59.9777832 -235.20160156 59.4621582 -234.79785156 58.9309082 C-234.13785156 58.9309082 -233.47785156 58.9309082 -232.79785156 58.9309082 C-232.30285156 57.4459082 -232.30285156 57.4459082 -231.79785156 55.9309082 C-231.13785156 55.9309082 -230.47785156 55.9309082 -229.79785156 55.9309082 C-229.79785156 55.2709082 -229.79785156 54.6109082 -229.79785156 53.9309082 C-227.37784672 51.34853882 -224.52132845 49.18346689 -221.79785156 46.9309082 C-221.27739258 46.49423828 -220.75693359 46.05756836 -220.22070312 45.60766602 C-210.58144547 37.54442976 -200.49767811 30.51174246 -189.79785156 23.9309082 C-188.6415625 23.20713989 -188.6415625 23.20713989 -187.46191406 22.46875 C-181.30878708 18.67850667 -174.99931195 15.48226705 -168.42285156 12.4934082 C-167.38644531 12.02185303 -166.35003906 11.55029785 -165.28222656 11.06445312 C-158.53994313 8.04618917 -151.75055473 5.24028271 -144.79785156 2.7434082 C-144.00459473 2.45216064 -143.21133789 2.16091309 -142.39404297 1.86083984 C-138.03615877 0.3620892 -134.53105016 -0.20276949 -129.86621094 -0.02490234 C-125.80984363 -0.11156458 -121.95002022 -1.35020743 -118.04785156 -2.3815918 C-79.49728616 -11.99967728 -38.09483422 -11.67411115 0 0 Z M11.20214844 2.9309082 C13.76760784 5.49636761 15.67901511 5.47136907 19.20214844 5.9309082 C16.63668903 3.3654488 14.72528176 3.39044733 11.20214844 2.9309082 Z M-146.79785156 4.9309082 C-147.45785156 5.5909082 -148.11785156 6.2509082 -148.79785156 6.9309082 C-147.14785156 6.6009082 -145.49785156 6.2709082 -143.79785156 5.9309082 C-144.78785156 5.6009082 -145.77785156 5.2709082 -146.79785156 4.9309082 Z M-151.79785156 6.9309082 C-152.45785156 7.5909082 -153.11785156 8.2509082 -153.79785156 8.9309082 C-152.14785156 8.6009082 -150.49785156 8.2709082 -148.79785156 7.9309082 C-149.78785156 7.6009082 -150.77785156 7.2709082 -151.79785156 6.9309082 Z M24.20214844 7.9309082 C24.86214844 8.5909082 25.52214844 9.2509082 26.20214844 9.9309082 C27.19214844 9.6009082 28.18214844 9.2709082 29.20214844 8.9309082 C27.55214844 8.6009082 25.90214844 8.2709082 24.20214844 7.9309082 Z M-156.79785156 8.9309082 C-157.45785156 9.5909082 -158.11785156 10.2509082 -158.79785156 10.9309082 C-157.14785156 10.6009082 -155.49785156 10.2709082 -153.79785156 9.9309082 C-154.78785156 9.6009082 -155.77785156 9.2709082 -156.79785156 8.9309082 Z M33.20214844 11.9309082 C33.86214844 12.5909082 34.52214844 13.2509082 35.20214844 13.9309082 C36.19214844 13.6009082 37.18214844 13.2709082 38.20214844 12.9309082 C36.55214844 12.6009082 34.90214844 12.2709082 33.20214844 11.9309082 Z M46.20214844 17.9309082 C46.53214844 18.5909082 46.86214844 19.2509082 47.20214844 19.9309082 C47.86214844 19.6009082 48.52214844 19.2709082 49.20214844 18.9309082 C48.21214844 18.6009082 47.22214844 18.2709082 46.20214844 17.9309082 Z M-180.79785156 20.9309082 C-181.12785156 21.5909082 -181.45785156 22.2509082 -181.79785156 22.9309082 C-180.80785156 22.6009082 -179.81785156 22.2709082 -178.79785156 21.9309082 C-179.45785156 21.6009082 -180.11785156 21.2709082 -180.79785156 20.9309082 Z M53.20214844 21.9309082 C53.53214844 22.5909082 53.86214844 23.2509082 54.20214844 23.9309082 C54.86214844 23.6009082 55.52214844 23.2709082 56.20214844 22.9309082 C55.21214844 22.6009082 54.22214844 22.2709082 53.20214844 21.9309082 Z M-185.79785156 23.9309082 C-186.12785156 24.5909082 -186.45785156 25.2509082 -186.79785156 25.9309082 C-185.80785156 25.6009082 -184.81785156 25.2709082 -183.79785156 24.9309082 C-184.45785156 24.6009082 -185.11785156 24.2709082 -185.79785156 23.9309082 Z M73.20214844 34.9309082 C73.53214844 35.5909082 73.86214844 36.2509082 74.20214844 36.9309082 C74.86214844 36.6009082 75.52214844 36.2709082 76.20214844 35.9309082 C75.21214844 35.6009082 74.22214844 35.2709082 73.20214844 34.9309082 Z M-203.79785156 35.9309082 C-204.12785156 36.5909082 -204.45785156 37.2509082 -204.79785156 37.9309082 C-203.80785156 37.6009082 -202.81785156 37.2709082 -201.79785156 36.9309082 C-202.45785156 36.6009082 -203.11785156 36.2709082 -203.79785156 35.9309082 Z M77.20214844 37.9309082 C77.53214844 38.5909082 77.86214844 39.2509082 78.20214844 39.9309082 C78.86214844 39.6009082 79.52214844 39.2709082 80.20214844 38.9309082 C79.21214844 38.6009082 78.22214844 38.2709082 77.20214844 37.9309082 Z M87.20214844 45.9309082 C88.19214844 47.4159082 88.19214844 47.4159082 89.20214844 48.9309082 C89.86214844 48.6009082 90.52214844 48.2709082 91.20214844 47.9309082 C89.88214844 47.2709082 88.56214844 46.6109082 87.20214844 45.9309082 Z M-219.79785156 48.9309082 C-220.78785156 50.4159082 -220.78785156 50.4159082 -221.79785156 51.9309082 C-220.47785156 51.2709082 -219.15785156 50.6109082 -217.79785156 49.9309082 C-218.45785156 49.6009082 -219.11785156 49.2709082 -219.79785156 48.9309082 Z M97.20214844 54.9309082 C101.69384772 60.46129313 101.69384772 60.46129313 107.20214844 64.9309082 C105.61122792 60.79451485 102.59739926 57.69877572 99.20214844 54.9309082 C98.54214844 54.9309082 97.88214844 54.9309082 97.20214844 54.9309082 Z M-238.79785156 67.9309082 C-238.79785156 70.9309082 -238.79785156 70.9309082 -238.79785156 70.9309082 Z M114.20214844 71.9309082 C115.20214844 73.9309082 115.20214844 73.9309082 115.20214844 73.9309082 Z M-245.79785156 75.9309082 C-244.79785156 77.9309082 -244.79785156 77.9309082 -244.79785156 77.9309082 Z M119.20214844 77.9309082 C120.20214844 79.9309082 120.20214844 79.9309082 120.20214844 79.9309082 Z M-249.79785156 80.9309082 C-248.79785156 82.9309082 -248.79785156 82.9309082 -248.79785156 82.9309082 Z M123.20214844 82.9309082 C124.20214844 84.9309082 124.20214844 84.9309082 124.20214844 84.9309082 Z M-252.79785156 84.9309082 C-251.79785156 86.9309082 -251.79785156 86.9309082 -251.79785156 86.9309082 Z M126.20214844 86.9309082 C127.20214844 88.9309082 127.20214844 88.9309082 127.20214844 88.9309082 Z M128.20214844 89.9309082 C129.20214844 91.9309082 129.20214844 91.9309082 129.20214844 91.9309082 Z M-257.79785156 91.9309082 C-256.79785156 93.9309082 -256.79785156 93.9309082 -256.79785156 93.9309082 Z M-259.79785156 94.9309082 C-258.79785156 96.9309082 -258.79785156 96.9309082 -258.79785156 96.9309082 Z M-261.79785156 97.9309082 C-260.79785156 99.9309082 -260.79785156 99.9309082 -260.79785156 99.9309082 Z M134.20214844 98.9309082 C135.20214844 100.9309082 135.20214844 100.9309082 135.20214844 100.9309082 Z M136.20214844 101.9309082 C137.20214844 103.9309082 137.20214844 103.9309082 137.20214844 103.9309082 Z M-264.79785156 102.9309082 C-263.79785156 104.9309082 -263.79785156 104.9309082 -263.79785156 104.9309082 Z M-266.79785156 105.9309082 C-265.79785156 107.9309082 -265.79785156 107.9309082 -265.79785156 107.9309082 Z M139.20214844 106.9309082 C140.20214844 108.9309082 140.20214844 108.9309082 140.20214844 108.9309082 Z M-267.79785156 107.9309082 C-266.79785156 109.9309082 -266.79785156 109.9309082 -266.79785156 109.9309082 Z M-271.79785156 114.9309082 C-270.79785156 116.9309082 -270.79785156 116.9309082 -270.79785156 116.9309082 Z M144.20214844 115.9309082 C145.20214844 117.9309082 145.20214844 117.9309082 145.20214844 117.9309082 Z M-272.79785156 116.9309082 C-271.79785156 118.9309082 -271.79785156 118.9309082 -271.79785156 118.9309082 Z M145.20214844 117.9309082 C146.20214844 119.9309082 146.20214844 119.9309082 146.20214844 119.9309082 Z M-273.79785156 118.9309082 C-272.79785156 120.9309082 -272.79785156 120.9309082 -272.79785156 120.9309082 Z M146.20214844 119.9309082 C147.20214844 121.9309082 147.20214844 121.9309082 147.20214844 121.9309082 Z M-274.79785156 120.9309082 C-273.79785156 122.9309082 -273.79785156 122.9309082 -273.79785156 122.9309082 Z M147.20214844 121.9309082 C148.20214844 123.9309082 148.20214844 123.9309082 148.20214844 123.9309082 Z M-275.79785156 122.9309082 C-274.79785156 124.9309082 -274.79785156 124.9309082 -274.79785156 124.9309082 Z M148.20214844 123.9309082 C149.20214844 125.9309082 149.20214844 125.9309082 149.20214844 125.9309082 Z M-276.79785156 124.9309082 C-275.79785156 126.9309082 -275.79785156 126.9309082 -275.79785156 126.9309082 Z M149.20214844 125.9309082 C150.20214844 127.9309082 150.20214844 127.9309082 150.20214844 127.9309082 Z M-277.79785156 126.9309082 C-276.79785156 128.9309082 -276.79785156 128.9309082 -276.79785156 128.9309082 Z M152.20214844 132.9309082 C153.20214844 134.9309082 153.20214844 134.9309082 153.20214844 134.9309082 Z M-280.79785156 133.9309082 C-279.79785156 135.9309082 -279.79785156 135.9309082 -279.79785156 135.9309082 Z M-282.79785156 138.9309082 C-281.79785156 140.9309082 -281.79785156 140.9309082 -281.79785156 140.9309082 Z M155.20214844 139.9309082 C156.20214844 141.9309082 156.20214844 141.9309082 156.20214844 141.9309082 Z M156.20214844 142.9309082 C157.20214844 144.9309082 157.20214844 144.9309082 157.20214844 144.9309082 Z M-284.79785156 143.9309082 C-283.79785156 145.9309082 -283.79785156 145.9309082 -283.79785156 145.9309082 Z M-285.79785156 146.9309082 C-284.79785156 148.9309082 -284.79785156 148.9309082 -284.79785156 148.9309082 Z M159.20214844 150.9309082 C160.20214844 152.9309082 160.20214844 152.9309082 160.20214844 152.9309082 Z M-287.79785156 152.9309082 C-286.79785156 154.9309082 -286.79785156 154.9309082 -286.79785156 154.9309082 Z M-288.79785156 155.9309082 C-287.79785156 157.9309082 -287.79785156 157.9309082 -287.79785156 157.9309082 Z M-289.79785156 158.9309082 C-288.79785156 160.9309082 -288.79785156 160.9309082 -288.79785156 160.9309082 Z M162.20214844 160.9309082 C163.20214844 162.9309082 163.20214844 162.9309082 163.20214844 162.9309082 Z M-290.79785156 162.9309082 C-289.79785156 164.9309082 -289.79785156 164.9309082 -289.79785156 164.9309082 Z M163.20214844 164.9309082 C164.20214844 166.9309082 164.20214844 166.9309082 164.20214844 166.9309082 Z M-292.79785156 169.9309082 C-291.79785156 171.9309082 -291.79785156 171.9309082 -291.79785156 171.9309082 Z M-293.79785156 174.9309082 C-292.79785156 176.9309082 -292.79785156 176.9309082 -292.79785156 176.9309082 Z M166.20214844 176.9309082 C167.20214844 178.9309082 167.20214844 178.9309082 167.20214844 178.9309082 Z M-294.79785156 178.9309082 C-293.79785156 180.9309082 -293.79785156 180.9309082 -293.79785156 180.9309082 Z M167.20214844 181.9309082 C168.20214844 183.9309082 168.20214844 183.9309082 168.20214844 183.9309082 Z M-295.79785156 184.9309082 C-294.79785156 186.9309082 -294.79785156 186.9309082 -294.79785156 186.9309082 Z M168.20214844 187.9309082 C169.20214844 189.9309082 169.20214844 189.9309082 169.20214844 189.9309082 Z M-296.79785156 190.9309082 C-295.79785156 192.9309082 -295.79785156 192.9309082 -295.79785156 192.9309082 Z M169.20214844 194.9309082 C170.20214844 196.9309082 170.20214844 196.9309082 170.20214844 196.9309082 Z M-297.79785156 198.9309082 C-296.79785156 200.9309082 -296.79785156 200.9309082 -296.79785156 200.9309082 Z " fill="#5AA25D" transform="translate(319.7978515625,31.069091796875)"/>
<path d="M0 0 C1.45792969 0.29197266 1.45792969 0.29197266 2.9453125 0.58984375 C29.83274235 6.64847794 52.74250202 20.56822602 72 40 C75.3156615 38.55521828 77.48232783 36.75662737 80.01831055 34.19287109 C80.79559006 33.41221283 81.57286957 32.63155457 82.373703 31.82723999 C83.2029982 30.98448517 84.0322934 30.14173035 84.88671875 29.2734375 C85.74433304 28.41062164 86.60194733 27.54780579 87.48554993 26.65884399 C90.22431505 23.90225874 92.95630178 21.13908109 95.6875 18.375 C98.43027705 15.60466337 101.17447392 12.83577172 103.92158508 10.06973267 C105.63150672 8.34749132 107.33874943 6.62258556 109.0431366 4.89486694 C110.19487114 3.73333603 110.19487114 3.73333603 111.36987305 2.54833984 C112.04841843 1.86154144 112.72696381 1.17474304 113.42607117 0.46713257 C115 -1 115 -1 116 -1 C116 39.92 116 80.84 116 123 C75.41 123 34.82 123 -7 123 C-0.25171267 115.12699811 -0.25171267 115.12699811 3.42553711 111.47680664 C4.24336166 110.66228531 5.06118622 109.84776398 5.90379333 109.00856018 C6.76956497 108.15108688 7.63533661 107.29361359 8.52734375 106.41015625 C9.91377998 105.02950733 11.30021326 103.64885543 12.68647861 102.26803493 C15.58803187 99.3795276 18.49414641 96.49560978 21.3994751 93.61090088 C23.79721629 91.2298253 26.19391132 88.84771786 28.58802795 86.46299744 C30.37540157 84.68307687 32.16502057 82.90540721 33.95726013 81.13038635 C38.85187811 76.255462 43.53702034 71.27402528 48 66 C29.51188339 47.1775594 6.55914946 34.94923209 -20.28100586 34.67041016 C-21.68878296 34.67886963 -21.68878296 34.67886963 -23.125 34.6875 C-24.12345947 34.69313965 -25.12191895 34.6987793 -26.15063477 34.70458984 C-51.65962938 35.11724436 -75.60845623 44.09063154 -94 62 C-95.13964964 62.90368694 -96.28506318 63.80017775 -97.4375 64.6875 C-115.9526263 80.58872612 -126.83803272 106.15853191 -129 130 C-130.64903807 159.12233252 -123.32442929 186.55439682 -104 209 C-96.75239176 217.00462454 -89.22577838 224.30717019 -80 230 C-79.24976563 230.50660156 -78.49953125 231.01320313 -77.7265625 231.53515625 C-72.75990402 234.76100918 -67.64052012 237.09217839 -62.125 239.1875 C-61.18986572 239.5443689 -61.18986572 239.5443689 -60.23583984 239.90844727 C-58.17114637 240.65974728 -56.09646113 241.34230439 -54 242 C-53.12802979 242.27360352 -52.25605957 242.54720703 -51.35766602 242.82910156 C-43.09514897 245.16782459 -35.23913686 245.45071543 -26.6875 245.375 C-25.38876953 245.38660156 -24.09003906 245.39820313 -22.75195312 245.41015625 C3.97575244 245.33041173 28.8216561 234.9122634 47.94921875 216.18359375 C58.26013818 205.6168555 65.15088816 193.46254594 71 180 C71.66 178.68 72.32 177.36 73 176 C85.21 176 97.42 176 110 176 C105.52593996 193.89624014 98.2280047 210.27718589 87 225 C86.38511719 225.80695313 85.77023437 226.61390625 85.13671875 227.4453125 C83.13559419 230.00386454 81.08464087 232.50906301 79 235 C78.26136719 235.886875 77.52273438 236.77375 76.76171875 237.6875 C62.63813095 253.96083194 44.49057535 264.34823458 25 273 C24.06027344 273.42410156 23.12054688 273.84820312 22.15234375 274.28515625 C15.6436814 277.06853544 8.92770087 278.61901253 2 280 C1.20634033 280.17136475 0.41268066 280.34272949 -0.4050293 280.51928711 C-7.62101036 281.98338974 -14.58488629 282.34855262 -21.9375 282.3125 C-23.11538086 282.30831055 -24.29326172 282.30412109 -25.50683594 282.29980469 C-45.04699848 282.05058145 -64.41535548 278.77999081 -82 270 C-83.05316406 269.52046875 -84.10632813 269.0409375 -85.19140625 268.546875 C-120.28036607 252.10017256 -143.91005653 222.25979987 -157.6875 186.73046875 C-159.85226375 180.57764321 -161.57089478 174.36601418 -163 168 C-163.26707764 166.84056885 -163.26707764 166.84056885 -163.53955078 165.65771484 C-165.23915155 157.51208577 -165.39838293 149.41153293 -165.375 141.125 C-165.37418427 140.03650757 -165.37418427 140.03650757 -165.37335205 138.92602539 C-165.33102971 126.60582342 -164.32572539 114.90287006 -161 103 C-160.71044434 101.93700684 -160.71044434 101.93700684 -160.41503906 100.85253906 C-154.81102122 81.11424963 -144.08693287 62.67228849 -131 47 C-130.18015625 45.99839844 -129.3603125 44.99679688 -128.515625 43.96484375 C-109.1942391 21.51793954 -79.65495779 6.07257384 -51 0 C-50.07832031 -0.20625 -49.15664062 -0.4125 -48.20703125 -0.625 C-32.68461571 -3.57774483 -15.44808497 -3.18992923 0 0 Z " fill="#E4E4E4" transform="translate(281,117)"/>
<path d="M0 0 C-1.15371094 0.36609375 -2.30742187 0.7321875 -3.49609375 1.109375 C-48.55079343 15.88525256 -94.55692782 45.33516059 -120.58984375 85.87109375 C-122.05244853 88.0791813 -123.62697897 90.15767169 -125.25 92.25 C-127.41754391 95.08016096 -128.70603356 97.67265772 -130 101 C-130.639375 101.598125 -131.27875 102.19625 -131.9375 102.8125 C-134.39067096 105.41434798 -135.14971639 107.72672197 -136.19140625 111.09765625 C-137.1239485 113.29160831 -138.31313845 114.33406725 -140 116 C-143.09670754 121.19996266 -145.16159114 125.99140318 -146 132 C-146.9873454 133.67419438 -147.98812105 135.34051852 -149 137 C-149.70812814 139.32108669 -150.38024152 141.65377147 -151 144 C-151.33 144.66 -151.66 145.32 -152 146 C-152.66 146 -153.32 146 -154 146 C-153.814375 146.61875 -153.62875 147.2375 -153.4375 147.875 C-153 150 -153 150 -154 152 C-154.66 152 -155.32 152 -156 152 C-155.79375 152.721875 -155.5875 153.44375 -155.375 154.1875 C-154.94047789 157.44641585 -155.58319331 159.08304504 -157 162 C-157.66 162 -158.32 162 -159 162 C-158.814375 162.556875 -158.62875 163.11375 -158.4375 163.6875 C-157.73015077 167.42634593 -158.8153642 170.4460926 -160 174 C-160.66 174 -161.32 174 -162 174 C-161.67 174.66 -161.34 175.32 -161 176 C-160.65259349 181.32689988 -160.65259349 181.32689988 -162 183.9375 C-163.45703437 186.94263338 -163.05798441 189.69488857 -163 193 C-163.28520405 194.67557379 -163.59955696 196.34817245 -164 198 C-164.66 198 -165.32 198 -166 198 C-165.67 198.66 -165.34 199.32 -165 200 C-165.09842413 201.54851499 -165.26091792 203.09312343 -165.453125 204.6328125 C-166.20199323 212.05627075 -165.99628849 219.43253253 -165.75 226.875 C-165.72666595 227.60398499 -165.70333191 228.33296997 -165.67929077 229.08404541 C-165.2712141 241.22611032 -164.29033752 253.05892402 -162 265 C-161.81872559 266.00063477 -161.63745117 267.00126953 -161.45068359 268.03222656 C-155.58315487 299.82951514 -143.36747156 331.8559183 -124 358 C-123.28457031 358.98484375 -122.56914063 359.9696875 -121.83203125 360.984375 C-114.79971152 370.52218558 -107.56377273 379.78977752 -99 388 C-96.51770513 390.45807736 -94.06494884 392.93113465 -91.66796875 395.47265625 C-84.14786965 403.32435027 -75.89521432 409.77024338 -67 416 C-66.00637451 416.69609375 -66.00637451 416.69609375 -64.99267578 417.40625 C-34.76237892 438.30694138 0.43590738 452.49566778 37 457 C37.73283203 457.0935376 38.46566406 457.1870752 39.22070312 457.28344727 C64.48334042 460.04810349 92.25597898 459.97062555 117 454 C118.00369629 453.76394043 119.00739258 453.52788086 120.04150391 453.28466797 C148.87235874 446.31837169 177.96166162 434.61938154 202 417 C202.59264648 416.5781543 203.18529297 416.15630859 203.79589844 415.72167969 C214.2942936 408.24690662 223.8038837 400.02007636 233 391 C233.60521484 390.40944824 234.21042969 389.81889648 234.83398438 389.21044922 C238.22463796 385.867845 241.39509606 382.47202561 244.375 378.75 C246.60117166 375.97197803 248.8211979 373.206385 251.15234375 370.515625 C268.38996068 350.4414382 280.35832014 325.82421953 289 301 C289.27682617 300.23574707 289.55365234 299.47149414 289.83886719 298.68408203 C297.30022204 278.01459901 301.24140754 255.44365313 301.0625 233.47265625 C301.05871338 232.40252792 301.05492676 231.3323996 301.05102539 230.22984314 C301.03889069 226.84068614 301.02024361 223.45161765 301 220.0625 C300.97348137 215.5742213 300.95348185 211.08598338 300.9375 206.59765625 C300.92505249 205.04776756 300.92505249 205.04776756 300.91235352 203.46656799 C300.90905029 202.51475143 300.90574707 201.56293488 300.90234375 200.58227539 C300.89448853 199.32393639 300.89448853 199.32393639 300.88647461 198.04017639 C301 196 301 196 302 194 C301.34 194 300.68 194 300 194 C300 192.02 300 190.04 300 188 C299.67 188 299.34 188 299 188 C299.33 185.69 299.66 183.38 300 181 C299.34 181 298.68 181 298 181 C297.87625 179.824375 297.7525 178.64875 297.625 177.4375 C297.27665718 174.55342634 296.73887113 171.89755939 295.875 169.125 C295 166 295 166 296 164 C295.34 164 294.68 164 294 164 C293.7525 162.72125 293.505 161.4425 293.25 160.125 C292.26587728 155.63626761 290.72530842 151.56939151 288.90234375 147.359375 C288 145 288 145 287.50390625 142.453125 C286.99373501 139.96950067 286.20181454 138.21805477 285 136 C282.70394092 131.06706057 280.72115093 126.16345278 279 121 C277.57204487 117.75464744 276.42603794 115.41350741 273.875 112.9375 C271.63711263 110.62501638 271.49190674 109.11540934 271 106 C270.34 105.34 269.68 104.68 269 104 C268 102 267 100 266 98 C265.34 97.34 264.68 96.68 264 96 C262.99011683 94.33930323 261.99141054 92.67179033 261 91 C250.4492032 75.47241226 237.55738195 59.91707248 223 48 C221.84859132 47.02517291 220.69758976 46.04986487 219.546875 45.07421875 C210.18269782 37.21409565 200.47619203 30.29801788 190 24 C188.94522461 23.36433105 188.94522461 23.36433105 187.86914062 22.71582031 C173.81904361 14.35389158 158.65325328 6.83254799 143 2 C146.61211566 0.69604777 148.60331301 1.30756827 152.12109375 2.703125 C153.12873779 3.10088135 154.13638184 3.4986377 155.17456055 3.90844727 C156.78971558 4.57251587 156.78971558 4.57251587 158.4375 5.25 C159.54971924 5.70238037 160.66193848 6.15476074 161.80786133 6.62084961 C181.91257757 14.96498727 200.38882962 25.52562994 217.453125 39.03125 C219.81498092 40.98798761 219.81498092 40.98798761 222 42 C222 42.66 222 43.32 222 44 C222.80244141 44.32677734 222.80244141 44.32677734 223.62109375 44.66015625 C226.84666579 46.47685774 229.38735025 48.91295127 232.0625 51.4375 C232.63468262 51.97391113 233.20686523 52.51032227 233.79638672 53.06298828 C235.53702798 54.70234535 237.26908384 56.3503852 239 58 C239.49516113 58.46647949 239.99032227 58.93295898 240.50048828 59.41357422 C257.23867213 75.23570921 270.26560519 94.72447335 281 115 C281.34659668 115.64936523 281.69319336 116.29873047 282.05029297 116.96777344 C295.48309329 142.3191082 303.28656803 169.58758523 307 198 C307.08588379 198.65644501 307.17176758 199.31289001 307.26025391 199.98922729 C307.94132642 205.57092472 308.17378491 211.07517383 308.203125 216.6953125 C308.21018463 217.59713257 308.21724426 218.49895264 308.22451782 219.42810059 C308.4517397 256.98630367 308.4517397 256.98630367 305 274 C304.70198486 275.52318848 304.70198486 275.52318848 304.39794922 277.07714844 C295.9225313 319.44788939 277.49348227 359.14916268 247.9140625 390.93359375 C246.18252748 392.80294483 244.55491054 394.71979466 242.9375 396.6875 C240.28225915 399.80704527 237.35002892 402.434292 234.2265625 405.078125 C232.68857336 406.40565247 231.18478607 407.77347943 229.7109375 409.171875 C215.75955769 422.38897166 199.8883383 432.92802523 183 442 C182.29746094 442.37882324 181.59492188 442.75764648 180.87109375 443.14794922 C161.06048843 453.71579821 139.21691046 461.0693081 117.1875 465.3125 C116.42606689 465.45961426 115.66463379 465.60672852 114.88012695 465.75830078 C99.39208061 468.52489007 84.01551327 469.37742744 68.3125 469.3125 C67.39246185 469.31067719 66.47242371 469.30885437 65.52450562 469.30697632 C51.4821915 469.26023711 37.81797921 468.68297569 24 466 C23.06816895 465.82839355 22.13633789 465.65678711 21.17626953 465.47998047 C-11.7572764 459.3224804 -45.44254566 446.82245589 -72 426 C-73.76847531 424.74666614 -75.5394038 423.4967881 -77.3125 422.25 C-93.92487376 410.10837838 -109.67378165 395.50087341 -122 379 C-122.66346436 378.11852295 -122.66346436 378.11852295 -123.34033203 377.21923828 C-163.36150333 323.6457812 -179.02501884 257.28459266 -169.49169922 191.20068359 C-164.67628142 159.85503943 -154.24724729 130.21951401 -138 103 C-137.43796875 102.04996094 -136.8759375 101.09992188 -136.296875 100.12109375 C-131.46387026 92.24986515 -125.82780088 84.96032449 -120.2175293 77.63476562 C-119.09415695 76.1264237 -118.04322883 74.56484325 -117 73 C-116.34 73 -115.68 73 -115 73 C-114.61134766 72.11828125 -114.61134766 72.11828125 -114.21484375 71.21875 C-112.91540207 68.84549317 -111.52161971 67.3537907 -109.5625 65.5 C-107.56077596 63.56887619 -105.85248362 61.8016159 -104.1875 59.5625 C-103.795625 59.046875 -103.40375 58.53125 -103 58 C-102.34 58 -101.68 58 -101 58 C-100.67 57.01 -100.34 56.02 -100 55 C-99.34 55 -98.68 55 -98 55 C-98 54.34 -98 53.68 -98 53 C-95.57999516 50.41763062 -92.72347688 48.25255869 -90 46 C-89.47954102 45.56333008 -88.95908203 45.12666016 -88.42285156 44.67675781 C-78.78359391 36.61352156 -68.69982655 29.58083426 -58 23 C-57.22914063 22.51748779 -56.45828125 22.03497559 -55.6640625 21.5378418 C-49.51088505 17.74756738 -43.20132768 14.55173985 -36.625 11.5625 C-35.07474121 10.85625488 -35.07474121 10.85625488 -33.49316406 10.13574219 C-26.66957649 7.07818978 -19.79254374 4.26313678 -12.75 1.75 C-11.92322754 1.45037354 -11.09645508 1.15074707 -10.24462891 0.84204102 C-9.47812012 0.57963623 -8.71161133 0.31723145 -7.921875 0.046875 C-6.92559082 -0.29585449 -6.92559082 -0.29585449 -5.90917969 -0.64550781 C-3.65535937 -1.0639921 -2.16255803 -0.69678414 0 0 Z M-157 155 C-156 157 -156 157 -156 157 Z M-158 158 C-157 160 -157 160 -157 160 Z M294 160 C295 162 295 162 295 162 Z M-161 169 C-160 171 -160 171 -160 171 Z M298 176 C299 178 299 178 299 178 Z M-163 178 C-162 180 -162 180 -162 180 Z M-165 190 C-164 192 -164 192 -164 192 Z " fill="#000201" transform="translate(188,32)"/>
<path d="M0 0 C0.66 0.33 1.32 0.66 2 1 C-6.10427844 9.50503946 -14.5707339 16.99732614 -24 24 C-24.86262451 24.64582031 -24.86262451 24.64582031 -25.74267578 25.3046875 C-76.42165822 63.06718077 -140.01112596 78.45893851 -202.50805664 69.33837891 C-205.01353883 68.9276592 -207.50636299 68.47693078 -210 68 C-210.73428223 67.86609863 -211.46856445 67.73219727 -212.22509766 67.59423828 C-242.53471695 61.88393092 -272.82108212 48.7437738 -298 31 C-298.97582031 30.32195312 -299.95164062 29.64390625 -300.95703125 28.9453125 C-303.31109244 27.30570065 -305.65860561 25.65762434 -308 24 C-307.01 23.67 -306.02 23.34 -305 23 C-302.70143069 24.35838426 -300.5982354 25.75854262 -298.4375 27.3125 C-272.8977952 44.97166797 -244.41548858 56.91794911 -214 63 C-213.04432129 63.19754883 -212.08864258 63.39509766 -211.10400391 63.59863281 C-182.88581287 69.22844986 -151.25054969 69.70175628 -123 64 C-122.02321289 63.80664062 -121.04642578 63.61328125 -120.04003906 63.4140625 C-97.07356183 58.71785636 -74.82379556 51.05145458 -54.25390625 39.77734375 C-52.25305859 38.68444377 -50.24194363 37.60980829 -48.21484375 36.56640625 C-37.46786035 30.97924109 -27.93016081 23.57452444 -18.375 16.1875 C-17.79516357 15.7438208 -17.21532715 15.3001416 -16.61791992 14.84301758 C-13.23066053 12.18541388 -10.62596468 9.39453971 -8 6 C-6.35857037 4.9590934 -4.69287785 3.95495674 -3 3 C-1.24850835 1.41754725 -1.24850835 1.41754725 0 0 Z " fill="#2E7E34" transform="translate(422,420)"/>
<path d="M0 0 C3.87997519 0.54943705 6.15087406 1.56856381 9.25 3.9375 C42.77636617 28.13178486 80.58241905 38.57695141 121 44 C121 44.33 121 44.66 121 45 C88.43799972 52.06371435 45.32764861 30.76737308 18.5 13.8359375 C15.62877251 11.93887648 12.80764924 9.98960795 10 8 C9.02675781 7.33484375 8.05351563 6.6696875 7.05078125 5.984375 C1.8964513 2.44751261 1.8964513 2.44751261 0 1 C0 0.67 0 0.34 0 0 Z " fill="#338239" transform="translate(114,443)"/>
<path d="M0 0 C1.0936084 0.04310303 2.1872168 0.08620605 3.31396484 0.13061523 C9.00923045 0.38717849 14.60569074 0.82061776 20.25 1.625 C20.25 2.285 20.25 2.945 20.25 3.625 C21.054375 3.604375 21.85875 3.58375 22.6875 3.5625 C25.25 3.625 25.25 3.625 26.25 4.625 C27.91617115 4.66563832 29.58388095 4.667721 31.25 4.625 C30.92 5.285 30.59 5.945 30.25 6.625 C28.1665982 6.4801481 26.08328295 6.33405129 24 6.1875 C22.83984375 6.10628906 21.6796875 6.02507813 20.484375 5.94140625 C18.28090541 5.78618359 16.08558064 5.60839833 13.88769531 5.38647461 C3.11870982 4.34365513 -7.69013978 4.27478084 -18.5 4.0625 C-20.56511132 4.01922019 -22.6302156 3.9756032 -24.6953125 3.93164062 C-29.71346895 3.82553814 -34.73169868 3.72400353 -39.75 3.625 C-39.75 3.295 -39.75 2.965 -39.75 2.625 C-37.77 2.625 -35.79 2.625 -33.75 2.625 C-33.75 1.965 -33.75 1.305 -33.75 0.625 C-22.46250808 -0.20308914 -11.31370599 -0.44949265 0 0 Z " fill="#6FAA72" transform="translate(266.75,22.375)"/>
<path d="M0 0 C1.98 0.99 1.98 0.99 4 2 C3.01 2.495 3.01 2.495 2 3 C2.00444122 4.22331024 2.00888245 5.44662048 2.01345825 6.70700073 C2.05393552 18.21439217 2.08395124 29.72176924 2.10362434 41.22921562 C2.11407834 47.14584181 2.12826694 53.0624107 2.15087891 58.97900391 C2.17254975 64.68481131 2.18455644 70.39056347 2.18975449 76.09640884 C2.19346062 78.27739456 2.20069737 80.45837713 2.21146011 82.63933945 C2.22589852 85.6852455 2.22798116 88.73092091 2.22705078 91.77685547 C2.23783661 93.1406282 2.23783661 93.1406282 2.24884033 94.5319519 C2.22810432 100.77189568 2.22810432 100.77189568 0 103 C0 69.01 0 35.02 0 0 Z " fill="#4C8F4E" transform="translate(397,117)"/>
<path d="M0 0 C-4.57729638 4.57729638 -9.89136073 5.58784521 -16 7 C-16 7.66 -16 8.32 -16 9 C-16.969375 9.37125 -17.93875 9.7425 -18.9375 10.125 C-22.80949463 11.78109409 -26.12104024 13.99911924 -29.58984375 16.3671875 C-32.1569508 18.10632972 -34.74659563 19.79235607 -37.375 21.4375 C-38.59316406 22.20900391 -38.59316406 22.20900391 -39.8359375 22.99609375 C-42 24 -42 24 -45 23 C-40.75829177 18.25311913 -35.90465595 15.26513539 -30.4375 12.0625 C-29.54796631 11.53615967 -28.65843262 11.00981934 -27.74194336 10.4675293 C-6.31606607 -2.10535536 -6.31606607 -2.10535536 0 0 Z " fill="#71B375" transform="translate(165,44)"/>
<path d="M0 0 C3.87997519 0.54943705 6.15087406 1.56856381 9.25 3.9375 C25.86732523 15.92938418 45.19125522 26.50440621 65 32 C64.505 32.99 64.505 32.99 64 34 C58.30440095 33.46183316 53.80123695 31.88745829 48.625 29.5 C47.84624512 29.14615234 47.06749023 28.79230469 46.26513672 28.42773438 C33.54932599 22.57112786 21.46517138 16.0632375 10 8 C9.02417969 7.33355469 8.04835938 6.66710937 7.04296875 5.98046875 C1.88044093 2.4352923 1.88044093 2.4352923 0 1 C0 0.67 0 0.34 0 0 Z " fill="#38893D" transform="translate(114,443)"/>
<path d="M0 0 C0 3.42232909 -0.68178081 4.50469123 -2.4140625 7.39453125 C-3.18121582 8.69547729 -3.18121582 8.69547729 -3.96386719 10.02270508 C-4.51204102 10.9433374 -5.06021484 11.86396973 -5.625 12.8125 C-10.42180909 21.00951635 -14.60083557 29.12937353 -18 38 C-18.66 38 -19.32 38 -20 38 C-18.07973974 30.52862516 -15.22339232 24.02289583 -11.5625 17.25 C-11.08490234 16.34378906 -10.60730469 15.43757812 -10.11523438 14.50390625 C-3.26655737 1.63327869 -3.26655737 1.63327869 0 0 Z " fill="#65A969" transform="translate(60,130)"/>
<path d="M0 0 C-3.19206659 3.93616319 -6.91447801 3.95353883 -11.703125 4.66015625 C-16.48237127 5.15280367 -21.20257742 5.16998741 -26 5 C-25.01 4.67 -24.02 4.34 -23 4 C-23 3.34 -23 2.68 -23 2 C-15.27111181 0.04596958 -7.94957992 -0.22428282 0 0 Z " fill="#77B77A" transform="translate(226,26)"/>
<path d="M0 0 C0.89557617 -0.01804687 1.79115234 -0.03609375 2.71386719 -0.0546875 C3.45975098 -0.07337891 4.20563477 -0.09207031 4.97412109 -0.11132812 C6.73730469 0.1015625 6.73730469 0.1015625 8.73730469 2.1015625 C7.73730469 3.1015625 7.73730469 3.1015625 5.15917969 3.234375 C-8.99071947 3.20426883 -23.12453548 2.64048668 -37.26269531 2.1015625 C-37.26269531 1.7715625 -37.26269531 1.4415625 -37.26269531 1.1015625 C-32.60373617 0.9571939 -27.94472054 0.81486313 -23.28564453 0.67431641 C-21.70489881 0.6263565 -20.12416907 0.57786631 -18.54345703 0.52880859 C-14.0937302 0.39089802 -9.64396461 0.26242627 -5.19348145 0.15136719 C-3.46216174 0.10670774 -1.73105713 0.05388505 0 0 Z " fill="#39883D" transform="translate(279.2626953125,486.8984375)"/>
<path d="M0 0 C6.10604339 0.44130406 10.22459587 2.44811172 15.4375 5.5625 C16.16904297 5.98724609 16.90058594 6.41199219 17.65429688 6.84960938 C19.44213758 7.88959514 21.22192662 8.94340177 23 10 C21.28417969 11.12451172 21.28417969 11.12451172 19 12 C16.80175781 11.30908203 16.80175781 11.30908203 14.453125 10.0078125 C13.60878906 9.55019531 12.76445312 9.09257813 11.89453125 8.62109375 C11.02183594 8.12738281 10.14914062 7.63367187 9.25 7.125 C8.36183594 6.63902344 7.47367187 6.15304688 6.55859375 5.65234375 C4.36412888 4.44892753 2.17892473 3.23126339 0 2 C0 1.34 0 0.68 0 0 Z " fill="#69A76D" transform="translate(355,46)"/>
<path d="M0 0 C3.82359419 1.33287262 6.43861222 2.99346461 9.5 5.625 C14.43888389 9.70365786 19.6008485 12.92386828 25.1171875 16.140625 C27.80790399 17.87610068 29.84540578 19.64764109 32 22 C28.26503526 20.59429509 24.8543712 18.88805658 21.375 16.9375 C18.5598548 15.36024741 16.06457848 14.02152616 13 13 C11.82975755 11.86319305 10.66475324 10.72000186 9.5390625 9.5390625 C7.0218292 7.0218292 4.28496684 4.75801247 1.57421875 2.453125 C1.05472656 1.97359375 0.53523437 1.4940625 0 1 C0 0.67 0 0.34 0 0 Z " fill="#4B904E" transform="translate(161,363)"/>
<path d="M0 0 C4.08873898 0.55194345 6.51663626 1.80073131 9.8125 4.25 C14.10669951 7.37246891 18.47027933 10.23183737 23 13 C22.34 13.66 21.68 14.32 21 15 C6.07369335 5.66396409 6.07369335 5.66396409 0 1 C0 0.67 0 0.34 0 0 Z " fill="#3E9143" transform="translate(114,443)"/>
<path d="M0 0 C-1.44369043 2.88738087 -3.25669538 3.04452908 -6.25 4.125 C-7.20390625 4.47820313 -8.1578125 4.83140625 -9.140625 5.1953125 C-11.9218023 5.97799354 -14.13074276 6.15707613 -17 6 C-16 3 -16 3 -14.36328125 2.0859375 C-3.41732283 -1.70866142 -3.41732283 -1.70866142 0 0 Z " fill="#7DC080" transform="translate(182,37)"/>
<path d="M0 0 C6.51791392 -0.3540919 11.17521449 -0.03901852 17 3 C17 3.33 17 3.66 17 4 C10.93107371 4.25287193 5.83799592 3.69832609 0 2 C0 1.34 0 0.68 0 0 Z " fill="#79BB7C" transform="translate(299,28)"/>
<path d="M0 0 C1.32 0.33 2.64 0.66 4 1 C2.37660195 2.70884005 0.70680947 4.37446717 -1 6 C-1.66 6 -2.32 6 -3 6 C-3 6.66 -3 7.32 -3 8 C-4.75 9.7265625 -4.75 9.7265625 -7 11.625 C-7.7425 12.25664063 -8.485 12.88828125 -9.25 13.5390625 C-9.8275 14.02117187 -10.405 14.50328125 -11 15 C-11.66 14.67 -12.32 14.34 -13 14 C-8.71 9.38 -4.42 4.76 0 0 Z " fill="#75BB79" transform="translate(106,76)"/>
<path d="M0 0 C10.8994709 -0.19047619 10.8994709 -0.19047619 15 1 C15.33 1.33 15.66 1.66 16 2 C17.66617115 2.04063832 19.33388095 2.042721 21 2 C20.67 2.66 20.34 3.32 20 4 C17.79112243 3.88501733 15.58289213 3.75756495 13.375 3.625 C12.14523437 3.55539063 10.91546875 3.48578125 9.6484375 3.4140625 C6.16346145 3.0185513 3.26950399 2.23738151 0 1 C0 0.67 0 0.34 0 0 Z " fill="#88D08A" transform="translate(277,25)"/>
<path d="M0 0 C3.30118794 0.5805321 4.91134076 1.54868099 7.234375 3.94140625 C8.09482422 4.81635742 8.09482422 4.81635742 8.97265625 5.70898438 C9.55917969 6.32064453 10.14570313 6.93230469 10.75 7.5625 C11.35199219 8.17802734 11.95398438 8.79355469 12.57421875 9.42773438 C14.05634381 10.94514813 15.5290967 12.47170596 17 14 C16.34 14.66 15.68 15.32 15 16 C14.67 15.01 14.34 14.02 14 13 C13.34 13 12.68 13 12 13 C10.81355197 11.881349 9.63526538 10.75230574 8.5078125 9.57421875 C6.18011982 7.14401111 3.75776556 4.8093223 1.35546875 2.453125 C0 1 0 1 0 0 Z " fill="#66AA6B" transform="translate(411,83)"/>
<path d="M0 0 C0.66 0.99 1.32 1.98 2 3 C1.29875 3.680625 0.5975 4.36125 -0.125 5.0625 C-3.27934337 8.20780513 -6.13934304 11.5888386 -9 15 C-9.33 14.01 -9.66 13.02 -10 12 C-9.36191406 11.30132812 -8.72382812 10.60265625 -8.06640625 9.8828125 C-7.24011719 8.97273438 -6.41382812 8.06265625 -5.5625 7.125 C-4.73878906 6.22007813 -3.91507812 5.31515625 -3.06640625 4.3828125 C-0.99092058 2.18862073 -0.99092058 2.18862073 0 0 Z " fill="#69A96C" transform="translate(82,99)"/>
<path d="M0 0 C4.97306516 0.49730652 8.63799813 1.55302334 13 4 C12.01 5.485 12.01 5.485 11 7 C7.04 5.35 3.08 3.7 -1 2 C-0.67 1.34 -0.34 0.68 0 0 Z " fill="#6FAF72" transform="translate(342,40)"/>
<path d="M0 0 C6.4 -0.49230769 6.4 -0.49230769 9.4375 2 C10.2109375 2.99 10.2109375 2.99 11 4 C7.52128379 5.15957207 6.65780355 4.77456651 3.3125 3.5625 C2.50425781 3.27503906 1.69601562 2.98757812 0.86328125 2.69140625 C0.24839844 2.46324219 -0.36648438 2.23507813 -1 2 C-0.67 1.34 -0.34 0.68 0 0 Z " fill="#73B376" transform="translate(324,34)"/>
<path d="M0 0 C3.71429203 1.62721365 6.61641051 3.94670486 9.75 6.5 C11.22726563 7.69109375 11.22726563 7.69109375 12.734375 8.90625 C13.48203125 9.5971875 14.2296875 10.288125 15 11 C15 11.66 15 12.32 15 13 C11.34119259 11.4307213 8.74472372 9.1680204 5.8125 6.5 C4.93207031 5.7059375 4.05164063 4.911875 3.14453125 4.09375 C1 2 1 2 0 0 Z " fill="#439749" transform="translate(97,428)"/>
<path d="M0 0 C-0.66 0 -1.32 0 -2 0 C-2 0.66 -2 1.32 -2 2 C-6.873261 3.5912689 -10.80790596 4.21192221 -16 4 C-13.21769572 2.14513048 -11.15636393 1.27537888 -8 0.3125 C-6.700625 -0.09548828 -6.700625 -0.09548828 -5.375 -0.51171875 C-3 -1 -3 -1 0 0 Z " fill="#8DD890" transform="translate(199,32)"/>
<path d="M0 0 C3.3 0 6.6 0 10 0 C9.01 1.485 9.01 1.485 8 3 C5.3984375 3.29296875 5.3984375 3.29296875 2.375 3.1875 C0.87066406 3.14689453 0.87066406 3.14689453 -0.6640625 3.10546875 C-1.43492187 3.07066406 -2.20578125 3.03585938 -3 3 C-2.01 2.67 -1.02 2.34 0 2 C0 1.34 0 0.68 0 0 Z " fill="#81C383" transform="translate(203,28)"/>
<path d="M0 0 C0.66 0.33 1.32 0.66 2 1 C-1.3 4.63 -4.6 8.26 -8 12 C-8.99 11.67 -9.98 11.34 -11 11 C-7.37 7.37 -3.74 3.74 0 0 Z " fill="#5F9462" transform="translate(98,83)"/>
<path d="M0 0 C3.86933162 0.57323431 6.15222057 2.38953552 9 5 C9 5.66 9 6.32 9 7 C5.56072421 5.7580393 2.74792181 4.44259716 0 2 C0 1.34 0 0.68 0 0 Z " fill="#6AAC6E" transform="translate(394,69)"/>
<path d="M0 0 C0.66 0.33 1.32 0.66 2 1 C-0.64 3.64 -3.28 6.28 -6 9 C-6.99 8.67 -7.98 8.34 -9 8 C-7.62100451 5.24200902 -5.62327638 4.56147404 -3 3 C-1.24850835 1.41754725 -1.24850835 1.41754725 0 0 Z " fill="#378A3D" transform="translate(422,420)"/>
<path d="M0 0 C1.11375 0.1546875 1.11375 0.1546875 2.25 0.3125 C0.12944386 3.4933342 -1.38050557 4.62775278 -4.75 6.3125 C-5.41 5.9825 -6.07 5.6525 -6.75 5.3125 C-3.42692308 0.38942308 -3.42692308 0.38942308 0 0 Z " fill="#78BE7B" transform="translate(117.75,68.6875)"/>
<path d="M0 0 C1.32 0.33 2.64 0.66 4 1 C1.69 2.65 -0.62 4.3 -3 6 C-3.66 5.67 -4.32 5.34 -5 5 C-2.75 2.4375 -2.75 2.4375 0 0 Z " fill="#7CBE7F" transform="translate(125,62)"/>
<path d="M0 0 C-1.65 1.32 -3.3 2.64 -5 4 C-5.66 3.67 -6.32 3.34 -7 3 C-6.67 2.01 -6.34 1.02 -6 0 C-3 -1 -3 -1 0 0 Z " fill="#81CC84" transform="translate(165,44)"/>
<path d="M0 0 C4 1 4 1 4 1 Z " fill="#000000" transform="translate(321,30)"/>
<path d="M0 0 C4 1 4 1 4 1 Z " fill="#000000" transform="translate(191,29)"/>
<path d="M0 0 C4 1 4 1 4 1 Z " fill="#000000" transform="translate(195,28)"/>
<path d="M0 0 C4 1 4 1 4 1 Z " fill="#000000" transform="translate(310,27)"/>
<path d="M0 0 C4 1 4 1 4 1 Z " fill="#000000" transform="translate(199,27)"/>
<path d="M0 0 C3 1 3 1 3 1 Z " fill="#000000" transform="translate(328,32)"/>
<path d="M0 0 C3 1 3 1 3 1 Z " fill="#000000" transform="translate(325,31)"/>
<path d="M0 0 C3 1 3 1 3 1 Z " fill="#000000" transform="translate(188,30)"/>
<path d="M0 0 C3 1 3 1 3 1 Z " fill="#000000" transform="translate(318,29)"/>
<path d="M0 0 C3 1 3 1 3 1 Z " fill="#000000" transform="translate(314,28)"/>
<path d="M0 0 C3 1 3 1 3 1 Z " fill="#000000" transform="translate(306,26)"/>
<path d="M0 0 C3 1 3 1 3 1 Z " fill="#000000" transform="translate(204,26)"/>
<path d="M0 0 C3 1 3 1 3 1 Z " fill="#000000" transform="translate(301,25)"/>
<path d="M0 0 C3 1 3 1 3 1 Z " fill="#000000" transform="translate(209,25)"/>
<path d="M0 0 C2 1 2 1 2 1 Z " fill="#000000" transform="translate(296,24)"/>
<path d="M0 0 C2 1 2 1 2 1 Z " fill="#000000" transform="translate(215,24)"/>
<path d="M0 0 C2 1 2 1 2 1 Z " fill="#000000" transform="translate(289,23)"/>
<path d="M0 0 C2 1 2 1 2 1 Z " fill="#000000" transform="translate(221,23)"/>
<path d="M0 0 C2 1 2 1 2 1 Z " fill="#000000" transform="translate(241,21)"/>
<path d="" fill="#000000" transform="translate(0,0)"/>
<path d="" fill="#000000" transform="translate(0,0)"/>
<path d="" fill="#000000" transform="translate(0,0)"/>
</svg>
