<?xml version="1.0" encoding="UTF-8"?>
<svg version="1.1" xmlns="http://www.w3.org/2000/svg" width="512" height="512">
<path d="M0,0 L26,1 L52,5 L74,11 L82,11 L107,21 L128,32 L142,41 L155,51 L157,52 L157,54 L161,56 L174,68 L185,79 L196,93 L207,109 L216,125 L224,141 L231,159 L238,184 L242,208 L243,217 L243,261 L240,284 L234,310 L226,333 L214,358 L203,376 L190,393 L181,403 L175,410 L167,417 L156,427 L137,441 L118,452 L102,460 L86,466 L63,473 L42,477 L24,479 L-18,479 L-41,476 L-64,471 L-85,464 L-104,456 L-126,444 L-137,436 L-148,428 L-162,416 L-178,400 L-187,389 L-199,372 L-211,351 L-220,332 L-228,308 L-234,281 L-237,254 L-237,225 L-234,198 L-229,174 L-220,147 L-212,129 L-203,113 L-196,102 L-184,86 L-182,83 L-180,83 L-178,79 L-171,72 L-168,68 L-166,68 L-165,65 L-163,65 L-163,63 L-155,56 L-140,44 L-123,33 L-113,27 L-89,16 L-69,9 L-61,9 L-40,4 L-20,1 Z M-68,10 Z M-71,11 Z M-74,12 Z M78,12 L80,14 L86,15 L84,13 Z M-77,13 Z M-80,14 L-82,16 L-77,15 Z M86,15 Z M-85,16 L-87,18 L-82,17 Z M89,16 Z M91,17 L93,19 L96,18 Z M-90,18 L-92,20 L-87,19 Z M96,19 Z M-94,20 Z M98,20 Z M-96,21 Z M100,21 L102,23 L105,22 Z M-98,22 Z M-100,23 Z M105,23 Z M-102,24 Z M107,24 Z M-104,25 Z M109,25 Z M-106,26 Z M111,26 Z M-108,27 Z M113,27 L114,29 L116,28 Z M-110,28 Z M-112,29 Z M116,29 Z M-114,30 L-115,32 L-112,31 Z M118,30 Z M120,31 L121,33 L123,32 Z M-117,32 Z M-119,33 L-120,35 L-117,34 Z M123,33 Z M125,34 Z M-122,35 Z M127,35 Z M-123,36 Z M128,36 Z M-125,37 Z M130,37 Z M-126,38 Z M131,38 Z M-128,39 Z M133,39 Z M-129,40 Z M134,40 Z M-131,41 Z M136,41 Z M-132,42 Z M137,42 Z M-134,43 Z M139,43 Z M-135,44 Z M140,44 L141,46 L143,45 Z M-137,45 L-138,47 L-135,46 Z M143,46 Z M-139,47 Z M144,47 L145,49 L147,48 Z M-140,48 Z M-142,49 Z M147,49 Z M-143,50 Z M148,50 Z M-144,51 Z M149,51 Z M-145,52 Z M151,52 Z M-147,53 Z M152,53 Z M-148,54 Z M153,54 Z M-149,55 Z M154,55 L156,58 L158,57 Z M-150,56 Z M-151,57 Z M-153,58 L-155,61 L-151,59 Z M158,58 Z M159,59 Z M160,60 Z M-156,61 Z M161,61 Z M-157,62 Z M162,62 Z M-158,63 Z M163,63 Z M-159,64 Z M164,64 L170,71 L174,74 L172,70 L166,64 Z M-160,65 Z M-161,66 Z M-162,67 Z M-163,68 Z M-164,69 Z M-165,70 Z M-166,71 Z M-167,72 Z M-168,73 Z M-169,74 Z M174,74 Z M-170,75 Z M175,75 Z M-171,76 Z M176,76 Z M-172,77 L-172,80 Z M177,77 Z M178,78 Z M179,79 Z M-174,80 Z M180,80 Z M-175,81 Z M181,81 L182,83 Z M-176,82 Z M-177,83 Z M182,83 Z M-178,84 Z M183,84 Z M-179,85 L-178,87 Z M184,85 Z M185,86 Z M-180,87 Z M186,87 L187,89 Z M-181,88 Z M-182,89 Z M187,89 Z M-183,90 L-182,92 Z M188,90 Z M189,91 Z M-184,92 Z M190,92 L191,94 Z M-185,93 Z M-186,94 L-185,96 Z M191,94 Z M192,95 Z M-187,96 Z M193,96 L194,98 Z M-188,97 Z M194,98 Z M-189,99 Z M195,99 L196,101 Z M-190,100 Z M-191,101 L-190,103 Z M196,101 Z M197,102 Z M-192,103 Z M-193,104 L-192,106 Z M198,104 Z M199,105 Z M-194,106 Z M-195,107 L-194,109 Z M200,107 Z M201,108 L202,110 Z M-196,109 Z M202,110 Z M-197,111 Z M203,111 L204,113 Z M-198,112 L-197,114 Z M204,113 Z M-199,114 Z M-200,115 L-199,117 Z M205,115 Z M206,116 L207,118 Z M-201,117 L-200,119 Z M207,118 Z M-202,119 Z M208,120 Z M-203,121 Z M209,122 Z M-204,123 Z M-205,124 L-204,126 Z M210,124 Z M211,125 L212,127 Z M-206,126 L-205,128 Z M212,127 L213,129 Z M-207,128 L-206,130 Z M213,129 L214,131 Z M-208,130 L-207,132 Z M214,131 L215,133 Z M-209,132 L-208,134 Z M215,133 L216,135 Z M-210,134 L-209,136 Z M216,135 L217,137 Z M-211,136 L-210,138 Z M217,138 Z M-212,139 Z M218,140 Z M-213,141 Z M219,142 L220,144 Z M-214,143 L-213,145 Z M220,145 Z M-215,146 Z M221,147 Z M-216,148 L-215,150 Z M222,149 L223,151 Z M-217,151 Z M223,152 L224,154 Z M-218,153 L-217,155 Z M224,155 Z M-219,156 L-218,158 Z M225,158 Z M-220,159 Z M226,160 L227,162 Z M-221,162 L-220,164 Z M227,164 Z M-222,165 L-221,167 Z M228,167 Z M-223,168 L-222,170 Z M229,170 L230,172 Z M-224,172 L-223,174 Z M230,174 L231,176 Z M-225,176 Z M231,178 Z M-226,179 L-225,181 Z M232,182 Z M-227,184 L-226,186 Z M233,186 L234,188 Z M-228,188 L-227,190 Z M234,191 L235,193 Z M-229,194 L-228,196 Z M235,197 L236,199 Z M-230,200 L-229,202 Z M236,204 L237,206 Z M-231,208 L-230,210 Z M237,214 Z M-232,220 Z " fill="#5AA25D" transform="translate(253,22)"/>
<path d="M0,0 L24,0 L38,2 L50,5 L66,11 L82,19 L96,29 L106,38 L110,42 L114,40 L153,1 L154,1 L154,125 L31,125 L37,118 L79,76 L86,68 L81,63 L69,53 L55,45 L37,39 L26,37 L3,37 L-14,40 L-30,46 L-46,55 L-56,64 L-63,70 L-74,84 L-83,100 L-87,111 L-90,124 L-91,132 L-91,152 L-88,170 L-81,188 L-75,199 L-66,211 L-52,225 L-42,232 L-32,238 L-16,244 L-4,247 L27,247 L42,244 L58,238 L70,231 L83,221 L94,209 L103,195 L109,182 L111,178 L148,178 L146,186 L140,202 L132,217 L125,227 L117,237 L107,248 L93,259 L80,267 L63,275 L53,279 L40,282 L29,284 L2,284 L-18,281 L-33,277 L-44,272 L-58,265 L-75,253 L-87,242 L-97,231 L-107,216 L-115,200 L-121,185 L-125,170 L-127,159 L-127,126 L-123,105 L-117,88 L-105,65 L-93,49 L-83,38 L-69,27 L-55,18 L-39,10 L-25,5 L-13,2 Z " fill="#E4E4E4" transform="translate(243,115)"/>
<path d="M0,0 L4,1 L-16,8 L-41,20 L-56,29 L-70,39 L-81,48 L-91,57 L-103,69 L-112,80 L-118,89 L-124,97 L-126,102 L-130,106 L-133,114 L-136,117 L-141,127 L-142,133 L-145,138 L-147,145 L-148,147 L-150,147 L-149,151 L-150,153 L-152,153 L-151,158 L-153,163 L-155,163 L-154,167 L-155,172 L-156,175 L-158,175 L-157,177 L-157,183 L-159,187 L-159,194 L-160,199 L-162,199 L-161,201 L-162,212 L-161,245 L-158,266 L-152,293 L-141,322 L-128,347 L-120,359 L-111,371 L-102,382 L-95,389 L-90,394 L-79,405 L-63,417 L-46,428 L-23,440 L1,449 L23,455 L41,458 L52,459 L96,459 L121,455 L146,448 L171,438 L194,426 L206,418 L222,406 L237,392 L244,385 L253,374 L262,363 L274,344 L285,323 L293,302 L299,283 L304,255 L305,246 L305,197 L306,195 L304,195 L304,189 L303,189 L304,182 L302,182 L301,174 L299,167 L300,165 L298,165 L296,156 L292,146 L291,141 L289,137 L285,128 L283,122 L280,116 L276,112 L275,107 L273,105 L270,99 L268,97 L265,92 L257,81 L246,68 L235,56 L227,49 L211,36 L194,25 L176,15 L153,5 L147,3 L151,2 L176,12 L197,23 L211,32 L224,42 L226,43 L226,45 L230,47 L243,59 L254,70 L265,84 L276,100 L285,116 L293,132 L300,150 L307,175 L311,199 L312,208 L312,252 L309,275 L303,301 L295,324 L283,349 L272,367 L259,384 L250,394 L244,401 L236,408 L225,418 L206,432 L187,443 L171,451 L155,457 L132,464 L111,468 L93,470 L51,470 L28,467 L5,462 L-16,455 L-35,447 L-57,435 L-68,427 L-79,419 L-93,407 L-109,391 L-118,380 L-130,363 L-142,342 L-151,323 L-159,299 L-165,272 L-168,245 L-168,216 L-165,189 L-160,165 L-151,138 L-143,120 L-134,104 L-127,93 L-115,77 L-113,74 L-111,74 L-109,70 L-102,63 L-99,59 L-97,59 L-96,56 L-94,56 L-94,54 L-86,47 L-71,35 L-54,24 L-44,18 L-20,7 Z M277,111 Z M-144,132 Z M290,138 Z M-151,150 Z M-153,156 L-152,158 Z M-154,159 L-153,161 Z M298,161 L299,163 Z M-157,170 L-156,172 Z M302,177 L303,179 Z M-159,179 L-158,181 Z M-161,191 L-160,193 Z M306,205 Z " fill="#000201" transform="translate(184,31)"/>
<path d="M0,0 L2,1 L-10,13 L-24,24 L-38,34 L-53,43 L-76,54 L-92,60 L-117,67 L-142,71 L-186,71 L-210,68 L-227,64 L-251,56 L-269,48 L-286,39 L-298,31 L-308,24 L-305,23 L-290,33 L-272,43 L-255,51 L-235,58 L-214,63 L-187,67 L-146,67 L-123,64 L-98,58 L-73,49 L-64,45 L-51,38 L-40,32 L-26,22 L-12,11 L-8,6 L-3,3 Z " fill="#308036" transform="translate(422,420)"/>
<path d="M0,0 L5,1 L15,8 L32,18 L53,28 L73,35 L94,40 L121,44 L121,45 L116,46 L105,46 L85,42 L62,35 L41,26 L22,16 L10,8 L0,1 Z " fill="#37873C" transform="translate(114,443)"/>
<path d="M0,0 L4,1 Z " fill="#000000" transform="translate(321,30)"/>
<path d="M0,0 L4,1 Z " fill="#000000" transform="translate(191,29)"/>
<path d="M0,0 L4,1 Z " fill="#000000" transform="translate(195,28)"/>
<path d="M0,0 L4,1 Z " fill="#000000" transform="translate(310,27)"/>
<path d="M0,0 L4,1 Z " fill="#000000" transform="translate(199,27)"/>
<path d="M0,0 L3,1 Z " fill="#000000" transform="translate(328,32)"/>
<path d="M0,0 L3,1 Z " fill="#000000" transform="translate(325,31)"/>
<path d="M0,0 L3,1 Z " fill="#000000" transform="translate(188,30)"/>
<path d="M0,0 L3,1 Z " fill="#000000" transform="translate(318,29)"/>
<path d="M0,0 L3,1 Z " fill="#000000" transform="translate(314,28)"/>
<path d="M0,0 L3,1 Z " fill="#000000" transform="translate(306,26)"/>
<path d="M0,0 L3,1 Z " fill="#000000" transform="translate(204,26)"/>
<path d="M0,0 L3,1 Z " fill="#000000" transform="translate(301,25)"/>
<path d="M0,0 L3,1 Z " fill="#000000" transform="translate(209,25)"/>
<path d="M0,0 L2,1 Z " fill="#000000" transform="translate(296,24)"/>
<path d="M0,0 L2,1 Z " fill="#000000" transform="translate(215,24)"/>
<path d="M0,0 L2,1 Z " fill="#000000" transform="translate(289,23)"/>
<path d="M0,0 L2,1 Z " fill="#000000" transform="translate(221,23)"/>
<path d="M0,0 L2,1 Z " fill="#000000" transform="translate(241,21)"/>
<path d="M0,0 Z " fill="#000000" transform="translate(282,22)"/>
<path d="M0,0 Z " fill="#000000" transform="translate(230,22)"/>
<path d="M0,0 Z " fill="#000000" transform="translate(270,21)"/>
</svg>
