<?xml version="1.0" encoding="UTF-8"?>
<svg version="1.1" xmlns="http://www.w3.org/2000/svg" width="512" height="512" shape-rendering="geometricPrecision">
	<circle cx="256" cy="256" r="220" fill="#5AA25D" stroke="#000" stroke-width="6" />
	<path d="M0,0 L24,0 L38,2 L50,5 L66,11 L82,19 L96,29 L106,38 L110,42 L114,40 L153,1 L154,1 L154,125 L31,125 L37,118 L79,76 L86,68 L81,63 L69,53 L55,45 L37,39 L26,37 L3,37 L-14,40 L-30,46 L-46,55 L-56,64 L-63,70 L-74,84 L-83,100 L-87,111 L-90,124 L-91,132 L-91,152 L-88,170 L-81,188 L-75,199 L-66,211 L-52,225 L-42,232 L-32,238 L-16,244 L-4,247 L27,247 L42,244 L58,238 L70,231 L83,221 L94,209 L103,195 L109,182 L111,178 L148,178 L146,186 L140,202 L132,217 L125,227 L117,237 L107,248 L93,259 L80,267 L63,275 L53,279 L40,282 L29,284 L2,284 L-18,281 L-33,277 L-44,272 L-58,265 L-75,253 L-87,242 L-97,231 L-107,216 L-115,200 L-121,185 L-125,170 L-127,159 L-127,126 L-123,105 L-117,88 L-105,65 L-93,49 L-83,38 L-69,27 L-55,18 L-39,10 L-25,5 L-13,2 Z " fill="#E4E4E4" transform="translate(243,115)"/>

</svg>
